<?xml version="1.0" encoding="UTF-8"?>
<svg id="Calque_1" xmlns="http://www.w3.org/2000/svg" xmlns:xlink="http://www.w3.org/1999/xlink" version="1.1" viewBox="0 0 1107.57 343.66">
  <!-- Generator: Adobe Illustrator 30.2.0, SVG Export Plug-In . SVG Version: 2.1.1 Build 105)  -->
  <defs>
    <style>
      .st0 {
        fill: url(#Dégradé_sans_nom_6);
      }

      .st1 {
        fill: url(#Dégradé_sans_nom_4);
      }

      .st2 {
        fill: url(#Dégradé_sans_nom_5);
      }

      .st3 {
        fill: url(#Dégradé_sans_nom_2);
      }

      .st4 {
        fill: url(#Dégradé_sans_nom_3);
      }

      .st5 {
        fill: url(#Dégradé_sans_nom);
      }
    </style>
    <linearGradient id="Dégradé_sans_nom" data-name="Dégradé sans nom" x1="438.48" y1="554.42" x2="438.48" y2="369.63" gradientTransform="translate(0 -250)" gradientUnits="userSpaceOnUse">
      <stop offset="0" stop-color="#f2f2f2"/>
      <stop offset=".09" stop-color="#e3e3e3"/>
      <stop offset=".26" stop-color="#cecece"/>
      <stop offset=".45" stop-color="#bebebe"/>
      <stop offset=".68" stop-color="#b5b5b5"/>
      <stop offset="1" stop-color="#b3b3b3"/>
    </linearGradient>
    <linearGradient id="Dégradé_sans_nom_2" data-name="Dégradé sans nom 2" x1="575.85" y1="550" x2="575.85" y2="304.75" gradientTransform="translate(0 -250)" gradientUnits="userSpaceOnUse">
      <stop offset="0" stop-color="#f2f2f2"/>
      <stop offset=".09" stop-color="#e3e3e3"/>
      <stop offset=".26" stop-color="#cecece"/>
      <stop offset=".45" stop-color="#bebebe"/>
      <stop offset=".68" stop-color="#b5b5b5"/>
      <stop offset="1" stop-color="#b3b3b3"/>
    </linearGradient>
    <linearGradient id="Dégradé_sans_nom_3" data-name="Dégradé sans nom 3" x1="196.04" y1="550.01" x2="196.04" y2="367.69" gradientTransform="translate(0 -250)" gradientUnits="userSpaceOnUse">
      <stop offset="0" stop-color="gray"/>
      <stop offset=".02" stop-color="#7d7d7d"/>
      <stop offset=".2" stop-color="#686868"/>
      <stop offset=".41" stop-color="#585858"/>
      <stop offset=".65" stop-color="#4f4f4f"/>
      <stop offset="1" stop-color="#4d4d4d"/>
    </linearGradient>
    <linearGradient id="Dégradé_sans_nom_4" data-name="Dégradé sans nom 4" x1="694.02" y1="550.73" x2="694.02" y2="289.24" gradientTransform="translate(0 -250)" gradientUnits="userSpaceOnUse">
      <stop offset="0" stop-color="gray"/>
      <stop offset=".02" stop-color="#7d7d7d"/>
      <stop offset=".2" stop-color="#686868"/>
      <stop offset=".41" stop-color="#585858"/>
      <stop offset=".65" stop-color="#4f4f4f"/>
      <stop offset="1" stop-color="#4d4d4d"/>
    </linearGradient>
    <linearGradient id="Dégradé_sans_nom_5" data-name="Dégradé sans nom 5" x1="852.7" y1="554.42" x2="852.7" y2="368.42" gradientTransform="translate(0 -250)" gradientUnits="userSpaceOnUse">
      <stop offset="0" stop-color="gray"/>
      <stop offset=".02" stop-color="#7d7d7d"/>
      <stop offset=".2" stop-color="#686868"/>
      <stop offset=".41" stop-color="#585858"/>
      <stop offset=".65" stop-color="#4f4f4f"/>
      <stop offset="1" stop-color="#4d4d4d"/>
    </linearGradient>
    <linearGradient id="Dégradé_sans_nom_6" data-name="Dégradé sans nom 6" x1="994.77" y1="550.75" x2="994.77" y2="368.43" gradientTransform="translate(0 -250)" gradientUnits="userSpaceOnUse">
      <stop offset="0" stop-color="gray"/>
      <stop offset=".02" stop-color="#7d7d7d"/>
      <stop offset=".2" stop-color="#686868"/>
      <stop offset=".41" stop-color="#585858"/>
      <stop offset=".65" stop-color="#4f4f4f"/>
      <stop offset="1" stop-color="#4d4d4d"/>
    </linearGradient>
  </defs>
  <g>
    <path class="st5" d="M431.34,304.42c-16.08,0-30.74-4.13-43.99-12.4-13.25-8.26-23.78-19.36-31.59-33.29-7.81-13.93-11.72-29.38-11.72-46.37,0-12.68,2.26-24.63,6.79-35.84,4.53-11.21,10.75-21.06,18.68-29.55,7.92-8.49,17.15-15.17,27.69-20.04,10.53-4.87,21.91-7.3,34.14-7.3,15.4,0,27.4,2.89,36.01,8.66,8.6,5.77,15.29,13.42,20.04,22.93v-27.86h45.52v176.64h-44.5v-28.87c-4.76,9.97-11.5,18-20.21,24.12-8.72,6.11-21.01,9.17-36.86,9.17h0ZM438.82,262.97c10.19,0,18.96-2.32,26.33-6.96,7.36-4.64,13.08-10.81,17.15-18.51,4.08-7.7,6.11-16.08,6.11-25.14s-2.04-17.78-6.11-25.48c-4.08-7.7-9.8-13.93-17.15-18.68-7.36-4.76-16.14-7.13-26.33-7.13s-18.29,2.32-25.65,6.96-13.08,10.82-17.15,18.51c-4.08,7.7-6.11,16.19-6.11,25.48s2.04,17.15,6.11,24.97c4.08,7.81,9.79,14.1,17.15,18.85,7.36,4.76,15.91,7.13,25.65,7.13Z"/>
    <path class="st3" d="M575.85,108.75c-7.7,0-14.21-2.66-19.53-7.98s-7.98-11.72-7.98-19.19,2.66-13.53,7.98-18.85,11.83-7.98,19.53-7.98,14.49,2.66,19.7,7.98,7.81,11.61,7.81,18.85c0,7.7-2.61,14.16-7.81,19.36-5.21,5.21-11.78,7.81-19.7,7.81ZM553.09,300V123.36h45.86v176.64h-45.86Z"/>
  </g>
  <path class="st4" d="M69.53,169.99c0-18.42-.37-33.51-1.47-48.25h28.36l1.47,28.73h1.1c9.94-16.94,26.52-32.78,55.98-32.78,24.31,0,42.72,14.73,50.46,35.73h.74c5.52-9.94,12.52-17.68,19.89-23.2,10.68-8.1,22.47-12.52,39.41-12.52,23.57,0,58.56,15.47,58.56,77.34v104.97h-31.67v-100.92c0-34.25-12.52-54.88-38.67-54.88-18.42,0-32.78,13.63-38.3,29.46-1.47,4.42-2.58,10.31-2.58,16.21v110.12h-31.67v-106.81c0-28.36-12.52-48.98-37.2-48.98-20.26,0-34.99,16.21-40.14,32.41-1.84,4.79-2.58,10.31-2.58,15.84v107.54h-31.67v-130.01s-.02,0-.02,0Z"/>
  <g>
    <path class="st1" d="M651.29,204.24h.74c4.42-6.26,10.68-14,15.84-20.26l52.3-61.51h39.04l-68.87,73.29,78.45,104.97h-39.41l-61.51-85.45-16.57,18.42v67.03h-32.04V39.24h32.04v165h-.01Z"/>
    <path class="st2" d="M805.02,217.5c.74,43.83,28.73,61.88,61.14,61.88,23.2,0,37.2-4.05,49.35-9.21l5.52,23.2c-11.42,5.16-30.94,11.05-59.3,11.05-54.88,0-87.66-36.09-87.66-89.87s31.67-96.13,83.6-96.13c58.19,0,73.66,51.19,73.66,83.97,0,6.63-.74,11.79-1.1,15.1h-125.22,0ZM900.04,194.3c.37-20.62-8.47-52.67-44.93-52.67-32.78,0-47.14,30.2-49.72,52.67h94.65,0Z"/>
    <path class="st0" d="M951.49,178.09c0-20.99-.37-39.04-1.47-55.61h28.36l1.11,34.99h1.47c8.1-23.94,27.62-39.04,49.35-39.04,3.68,0,6.26.37,9.21,1.11v30.57c-3.32-.74-6.63-1.1-11.05-1.1-22.83,0-39.04,17.31-43.46,41.62-.74,4.42-1.47,9.58-1.47,15.1v95.02h-32.04v-122.66h0Z"/>
  </g>
</svg>